<svg width="862" height="143" viewBox="0 0 862 143" fill="none" xmlns="http://www.w3.org/2000/svg">
<g opacity="0.05">
<path d="M50.92 3.61H80.37L131.48 139.65H103.17L91.77 107.16H39.71L28.31 139.65H0L50.92 3.61ZM83.41 83.6L71.44 49.4L66.5 33.06H64.98L60.04 49.4L47.88 83.6H83.41Z" fill="black"/>
<path d="M149.849 3.61H199.439C208.306 3.61 216.159 5.44666 222.999 9.12C229.966 12.7933 235.349 17.9233 239.149 24.51C242.949 30.97 244.849 38.3167 244.849 46.55C244.849 55.29 242.062 63.08 236.489 69.92C231.042 76.6333 224.139 81.51 215.779 84.55L215.589 85.88L252.069 138.13V139.65H222.619L187.469 88.54H175.499V139.65H149.849V3.61ZM199.249 64.98C205.076 64.98 209.826 63.2067 213.499 59.66C217.172 56.1133 219.009 51.6167 219.009 46.17C219.009 40.9767 217.236 36.5433 213.689 32.87C210.269 29.1967 205.582 27.36 199.629 27.36H175.499V64.98H199.249Z" fill="black"/>
<path d="M350.088 142.69C338.182 142.69 327.668 139.333 318.548 132.62C309.428 125.907 303.032 116.407 299.358 104.12L323.488 94.62C325.388 101.84 328.618 107.603 333.178 111.91C337.738 116.217 343.438 118.37 350.278 118.37C355.978 118.37 360.855 116.977 364.908 114.19C368.962 111.277 370.988 107.287 370.988 102.22C370.988 97.1533 369.025 93.0367 365.098 89.87C361.298 86.5767 354.458 83.0933 344.578 79.42L336.218 76.38C327.478 73.34 320.005 68.7167 313.798 62.51C307.592 56.1767 304.488 48.26 304.488 38.76C304.488 31.6667 306.325 25.2067 309.998 19.38C313.672 13.5533 318.865 8.99333 325.578 5.69999C332.292 2.27999 339.892 0.569993 348.378 0.569993C360.665 0.569993 370.355 3.48333 377.448 9.30999C384.542 15.01 389.418 21.7233 392.078 29.45L369.468 38.95C368.075 34.77 365.605 31.2867 362.058 28.5C358.638 25.5867 354.205 24.13 348.758 24.13C343.185 24.13 338.562 25.46 334.888 28.12C331.342 30.6533 329.568 34.01 329.568 38.19C329.568 42.2433 331.278 45.7267 334.698 48.64C338.118 51.4267 343.755 54.15 351.608 56.81L360.158 59.66C371.938 63.7133 380.932 69.0967 387.138 75.81C393.472 82.3967 396.638 91.0733 396.638 101.84C396.638 110.707 394.358 118.243 389.798 124.45C385.238 130.53 379.348 135.09 372.128 138.13C365.035 141.17 357.688 142.69 350.088 142.69Z" fill="black"/>
<path d="M417.513 3.61H442.403V38L440.883 54.91H442.403C445.19 50.35 449.243 46.6767 454.563 43.89C459.883 41.1033 465.646 39.71 471.853 39.71C483.633 39.71 492.626 43.2567 498.833 50.35C505.166 57.3167 508.333 67.0067 508.333 79.42V139.65H483.443V82.46C483.443 76.2533 481.733 71.44 478.313 68.02C475.02 64.6 470.586 62.89 465.013 62.89C458.426 62.89 452.98 65.55 448.673 70.87C444.493 76.19 442.403 82.7133 442.403 90.44V139.65H417.513V3.61Z" fill="black"/>
<path d="M560.522 142.69C550.262 142.69 541.839 139.713 535.252 133.76C528.666 127.68 525.372 119.763 525.372 110.01C525.372 103.55 527.082 97.85 530.502 92.91C533.922 87.97 538.609 84.17 544.562 81.51C550.516 78.85 557.102 77.52 564.322 77.52C574.329 77.52 582.879 78.9767 589.972 81.89V77.71C589.972 72.39 587.946 68.0833 583.892 64.79C579.966 61.4967 574.646 59.85 567.932 59.85C563.372 59.85 558.939 60.9267 554.632 63.08C550.452 65.1067 546.969 67.83 544.182 71.25L528.222 58.71C532.909 52.63 538.799 47.9433 545.892 44.65C552.986 41.3567 560.712 39.71 569.072 39.71C583.892 39.71 595.166 43.13 602.892 49.97C610.619 56.81 614.482 66.8167 614.482 79.99V139.65H589.972V129.77H588.452C585.539 133.57 581.676 136.673 576.862 139.08C572.176 141.487 566.729 142.69 560.522 142.69ZM566.412 123.31C573.632 123.31 579.332 121.03 583.512 116.47C587.819 111.783 589.972 106.337 589.972 100.13C583.512 97.09 576.736 95.57 569.642 95.57C556.722 95.57 550.262 100.383 550.262 110.01C550.262 113.937 551.656 117.167 554.442 119.7C557.229 122.107 561.219 123.31 566.412 123.31Z" fill="black"/>
<path d="M637.386 3.61H662.276V77.71H663.606L698.376 42.75H728.966V44.27L692.296 80.18L730.676 138.13V139.65H701.226L674.816 97.28L662.276 109.63V139.65H637.386V3.61Z" fill="black"/>
<path d="M757.579 32.11C753.146 32.11 749.346 30.5267 746.179 27.36C743.012 24.1933 741.429 20.3933 741.429 15.96C741.429 11.5267 743.012 7.78999 746.179 4.75C749.346 1.58333 753.146 0 757.579 0C762.012 0 765.749 1.58333 768.789 4.75C771.956 7.78999 773.539 11.5267 773.539 15.96C773.539 20.3933 771.956 24.1933 768.789 27.36C765.749 30.5267 762.012 32.11 757.579 32.11ZM745.039 42.75H769.929V139.65H745.039V42.75Z" fill="black"/>
<path d="M796.029 42.75H819.399V55.67H820.919C823.325 51.11 827.062 47.3733 832.129 44.46C837.195 41.42 842.769 39.9 848.849 39.9C853.282 39.9 857.335 40.5967 861.009 41.99V66.88C857.589 65.6133 854.675 64.7267 852.269 64.22C849.989 63.5867 847.519 63.27 844.859 63.27C837.512 63.27 831.685 65.93 827.379 71.25C823.072 76.57 820.919 83.2833 820.919 91.39V139.65H796.029V42.75Z" fill="black"/>
</g>
</svg>
