<svg width="91" height="64" viewBox="0 0 91 64" fill="none" xmlns="http://www.w3.org/2000/svg">
<path fill-rule="evenodd" clip-rule="evenodd" d="M90.859 58.5489C87.0562 64.9961 81.0338 63.1253 79.2251 61.6606C78.4553 62.1829 77.1055 63.3277 75.3056 63.1955C71.4725 62.9141 70.0998 57.4364 70.0998 57.4364C70.1274 57.4583 68.958 57.8399 68.326 57.8331C68.3179 59.4395 66.9293 63.2768 63.1818 63.2277C58.9765 63.1729 58.1216 56.9077 58.1216 56.9077C58.1216 56.9077 57.7031 57.4888 56.1119 58.0676C56.192 56.8335 56.1335 63.0398 51.0933 63.1311C47.1087 63.2033 46.0331 56.8111 46.0331 56.8111C46.0331 56.8111 45.3418 57.5292 44.0022 57.7782C44.0873 56.524 43.9489 63.1521 38.9081 63.1311C35.5016 63.1169 34.3375 59.1935 34.4281 58.649C34.5436 57.955 33.2768 63.2286 29.9679 63.1465C28.6024 63.1064 27.5844 62.1177 26.9456 60.7997C26.0904 61.7782 24.8489 63.1465 23.4561 63.1465C20.956 63.1465 19.8538 61.0554 20.0405 55.083C20.0564 54.3746 20.0053 54.096 19.3011 53.99C18.8784 53.9195 18.4456 53.786 17.9876 53.7156C17.8408 54.2054 16.5958 62.9871 12.3146 63.1538C10.8783 63.2097 10.093 61.9655 9.44803 61.0421C8.45937 62.35 7.15429 63.1955 5.29509 63.1955C2.14574 63.1955 0 60.6495 0 57.5089C0 54.3682 2.14574 51.8225 5.29509 51.8225C5.85192 51.8225 6.00824 51.9024 6.51694 52.0508C5.47078 42.5257 7.9414 41.0371 10.1027 41.0371C12.1776 41.0371 15.7224 45.853 10.7346 58.0686C11.842 61.7122 14.2293 61.5061 15.3765 54.0056C15.61 52.4809 14.9857 50.4235 15.9567 50.1363C17.7318 49.6116 17.9202 51.1861 18.7525 51.4484C19.6325 51.7257 20.1462 51.6986 20.9911 51.875C22.4347 52.157 22.9981 52.9325 22.8222 54.6598C22.611 56.8454 22.2415 60.0264 23.3681 60.4141C24.1805 60.6957 25.6638 59.0109 25.9241 58.0891C26.1843 57.1672 26.2387 56.8517 26.2618 56.1755C26.297 54.7304 26.3411 53.6711 26.5876 52.5782C26.6931 52.1553 26.8133 51.8753 27.2917 51.8561C27.6854 51.8461 28.4054 51.7276 28.7224 51.9742C29.1448 52.2916 29.092 52.6137 29.0435 53.4614C28.5522 65.5469 32.3335 59.5137 33.4609 54.6829C33.0595 49.2204 33.3351 41.1371 36.7581 41.0015C38.5384 40.931 39.3254 42.3572 39.412 43.4217C39.6568 46.4283 38.2853 51.4086 36.4814 54.7579C35.4505 61.5918 40.9889 62.9431 41.8746 57.4882C40.4256 56.7993 38.8595 54.0106 40.1339 52.6516C40.8489 51.8889 43.8255 52.9846 43.8742 55.3743C45.3343 54.9838 45.5292 54.1594 45.5495 54.296C45.1481 48.8335 45.5204 41.1372 48.9436 41.0016C50.7236 40.9311 51.5106 42.3573 51.5971 43.4218C51.842 46.4283 50.4704 51.4087 48.6668 54.758C47.6357 61.5918 53.1743 62.9432 54.0597 57.4883C52.9869 57.2813 50.7222 54.3152 52.0289 52.6517C52.7272 51.7627 55.6928 53.6114 56.0249 55.4534C57.4275 55.0565 57.618 54.2583 57.6381 54.3927C57.2366 48.9304 57.6089 41.234 61.0322 41.0984C62.8122 41.0279 63.5991 42.4541 63.6856 43.5186C63.9305 46.5252 62.5589 51.5056 60.7551 54.8549C59.7243 61.6888 65.2627 63.0398 66.1484 57.585C64.6741 57.3395 62.5788 54.2077 64.2652 52.6055C64.9389 51.9654 67.5134 53.6271 68.116 55.5229C68.9533 55.4907 69.4746 55.2018 69.5863 55.1728C68.2495 48.7601 69.2447 41.0659 72.9272 41.0017C74.9175 40.967 76.8634 42.0777 76.0093 48.1785C75.194 53.9993 72.2635 56.4421 72.2703 56.4794C72.4408 57.1768 73.9446 63.0128 77.7314 59.9335C77.5354 59.4896 77.3391 59.0362 77.2294 58.4868C76.6018 55.2869 77.8346 51.6725 81.1854 51.0883C83.1053 50.7536 84.9138 51.6883 85.1997 53.7955C85.6702 57.2436 82.5566 59.7407 81.3727 60.2824C80.8424 59.9811 86.1796 63.4042 89.3472 56.5443C89.5308 56.1527 89.7522 56.1858 90.0391 56.3877C90.2417 56.5303 91.3957 57.6235 90.859 58.5489ZM7.58595 56.6617C7.42479 56.1799 7.09404 55.1182 6.97708 54.6581C6.33294 54.098 5.87318 54.007 5.04637 54.007C3.20895 54.007 2.12747 55.7058 2.12747 57.5377C2.12747 59.3694 3.30566 61.0685 5.14309 61.0685C6.73544 61.0685 7.94735 59.9858 8.3171 58.4532C8.0583 57.8557 7.80157 57.3066 7.58595 56.6617ZM10.0576 43.5584C8.76657 43.5584 8.32861 46.6383 8.4136 49.2657C8.48878 51.5887 9.13789 53.6338 9.47461 54.5501C9.5601 54.6649 9.54422 54.5902 9.62055 54.712C11.8623 49.8003 10.9325 43.5584 10.0576 43.5584ZM36.9425 43.6552C35.2739 43.4638 35.2847 50.415 35.4918 51.9742C36.3585 50.5878 37.8639 44.0285 36.9425 43.6552ZM49.1277 43.6552C47.459 43.4638 47.4698 50.415 47.6771 51.9742C48.5436 50.5878 50.0492 44.0285 49.1277 43.6552ZM61.2163 43.7519C59.5475 43.5605 59.5583 50.5117 59.7656 52.0711C60.6321 50.6846 62.1377 44.1252 61.2163 43.7519ZM73.1113 43.2483C70.5115 43.7703 71.1169 52.4387 71.5118 53.959C74.5741 49.7528 74.6372 43.0903 73.1113 43.2483ZM82.8549 54.0808C82.7227 53.528 82.0618 53.2327 81.6056 53.3055C80.3002 53.4837 79.0341 55.1095 79.5242 57.5847C79.6333 58.136 79.9063 58.6434 79.9018 58.6266C82.8233 56.6666 83.0716 55.1221 82.8549 54.0808ZM27.8035 49.9429C27.4304 49.9429 27.0657 49.8324 26.7554 49.6251C26.4452 49.4179 26.2033 49.1233 26.0605 48.7786C25.9176 48.434 25.8803 48.0546 25.9531 47.6887C26.0258 47.3228 26.2055 46.9866 26.4693 46.7228C26.733 46.459 27.0691 46.2793 27.4351 46.2065C27.801 46.1337 28.1803 46.171 28.525 46.3138C28.8698 46.4566 29.1643 46.6984 29.3716 47.0086C29.5788 47.3188 29.6895 47.6836 29.6895 48.0567C29.6895 48.3043 29.6407 48.5496 29.5459 48.7784C29.4512 49.0073 29.3123 49.2152 29.1371 49.3904C28.9619 49.5655 28.7541 49.7045 28.5253 49.7993C28.2965 49.8941 28.0512 49.9429 27.8035 49.9429Z" fill="black"/>
<g clip-path="url(#clip0_879_427)">
<path d="M14.5 28.999C22.4955 28.999 29 22.4934 29 14.499C29 6.50469 22.4943 -0.000976562 14.5 -0.000976562C6.50567 -0.000976562 0 6.50348 0 14.499C0 22.4946 6.50446 28.999 14.5 28.999ZM14.5 1.81152C21.4938 1.81152 27.1875 7.50277 27.1875 14.499C27.1875 21.4929 21.4938 27.1865 14.5 27.1865C7.50375 27.1865 1.8125 21.4929 1.8125 14.499C1.8125 7.50277 7.50375 1.81152 14.5 1.81152Z" fill="black"/>
<path d="M21.4387 6.12648C19.5561 4.5629 17.1382 3.62402 14.5004 3.62402C13.7392 3.62402 12.9961 3.70377 12.2783 3.8524C13.5978 5.7229 14.7965 7.66953 15.8514 9.68744C17.8463 8.75703 19.7241 7.55715 21.4387 6.12648Z" fill="black"/>
<path d="M17.963 14.3196C20.37 13.8242 22.8748 13.7783 25.3579 14.1903C25.2854 11.5984 24.3103 9.23492 22.7298 7.4043C20.8642 8.97634 18.8124 10.2789 16.6338 11.2975C17.1099 12.2908 17.5521 13.2973 17.963 14.3196Z" fill="black"/>
<path d="M14.1593 10.3725C13.0693 8.30508 11.8356 6.31133 10.4581 4.4082C7.19322 5.71683 4.71856 8.55883 3.9126 12.0473C7.43247 12.1971 10.9161 11.6111 14.1593 10.3725Z" fill="black"/>
<path d="M16.1965 14.7709C15.8183 13.8392 15.4087 12.9221 14.9712 12.0146C11.832 13.2375 8.47887 13.9045 5.06896 13.9045C4.60013 13.9045 4.12887 13.8755 3.65762 13.8501C3.64554 14.0652 3.625 14.2803 3.625 14.499C3.625 17.1694 4.59167 19.6126 6.18787 21.5049C8.79908 18.2617 12.3105 15.9381 16.1965 14.7709Z" fill="black"/>
<path d="M18.6284 16.0346C19.4924 18.4464 20.1703 20.9247 20.6681 23.4502C23.1186 21.7597 24.8296 19.0893 25.2585 16.0044C23.0364 15.6117 20.7901 15.6286 18.6284 16.0346Z" fill="black"/>
<path d="M7.47412 22.7935C9.3712 24.4018 11.8193 25.3745 14.5006 25.3745C16.1101 25.3745 17.6338 25.0157 19.0077 24.3873C18.5098 21.6794 17.7848 19.0296 16.8484 16.457C13.1944 17.524 9.89441 19.7171 7.47412 22.7935Z" fill="black"/>
</g>
<defs>
<clipPath id="clip0_879_427">
<rect width="29" height="29" fill="white" transform="translate(0 -0.000976562)"/>
</clipPath>
</defs>
</svg>
