<svg width="47" height="355" viewBox="0 0 47 355" fill="none" xmlns="http://www.w3.org/2000/svg">
<path d="M37.832 313.435C37.832 312.495 38.067 311.747 38.5372 311.191C39.0073 310.636 39.7339 310.358 40.717 310.358L43.5378 310.358C44.5209 310.358 45.2475 310.636 45.7176 311.191C46.145 311.747 46.3587 312.495 46.3587 313.435L46.3587 325.873C46.3587 326.813 46.145 327.561 45.7176 328.117C45.2475 328.672 44.5209 328.95 43.5378 328.95L40.717 328.95C39.7339 328.95 39.0073 328.672 38.5372 328.117C38.067 327.561 37.832 326.813 37.832 325.873L37.832 324.911L32.5748 326.706L32.5748 339.593L37.832 341.388L37.832 340.362C37.832 339.464 38.067 338.738 38.5372 338.182C39.0073 337.627 39.7339 337.349 40.717 337.349L43.5378 337.349C44.5209 337.349 45.2475 337.627 45.7176 338.182C46.145 338.738 46.3587 339.464 46.3587 340.362L46.3587 351.133C46.3587 352.03 46.145 352.778 45.7176 353.377C45.2475 353.932 44.5209 354.21 43.5378 354.21L40.717 354.21C39.7339 354.21 39.0073 353.932 38.5372 353.377C38.067 352.778 37.832 352.03 37.832 351.133L37.832 350.171L3.72484 337.926C3.04099 337.712 2.50673 337.327 2.12206 336.772C1.69466 336.173 1.48095 335.511 1.48095 334.784L1.48095 329.784C1.48095 329.057 1.69466 328.416 2.12206 327.86C2.50673 327.262 3.04099 326.856 3.72484 326.642L37.832 314.397L37.832 313.435ZM24.0481 329.655L13.7903 333.117L24.0481 336.644L24.0481 329.655Z" fill="white"/>
<path d="M37.832 266.882C37.832 265.941 38.067 265.193 38.5372 264.638C39.0073 264.082 39.7339 263.804 40.717 263.804L43.5378 263.804C44.5209 263.804 45.2475 264.082 45.7176 264.638C46.145 265.193 46.3587 265.941 46.3587 266.882L46.3587 274.96C46.3587 275.472 46.2305 275.964 45.9741 276.434C45.7176 276.862 45.3543 277.203 44.8842 277.46L34.0494 283.358C32.639 284.127 31.5918 284.79 30.908 285.346C30.2241 285.901 29.754 286.5 29.4975 287.141C29.2411 287.782 29.1128 288.637 29.1128 289.705L29.1128 290.859L37.832 290.859L37.832 289.897C37.832 289 38.067 288.273 38.5372 287.718C39.0073 287.162 39.7339 286.884 40.717 286.884L43.5378 286.884C44.5209 286.884 45.2475 287.162 45.7176 287.718C46.145 288.273 46.3587 289 46.3587 289.897L46.3587 302.079C46.3587 303.019 46.145 303.767 45.7176 304.322C45.2475 304.878 44.5209 305.156 43.5378 305.156L40.717 305.156C39.7339 305.156 39.0073 304.878 38.5372 304.322C38.067 303.767 37.832 303.019 37.832 302.079L37.832 301.117L10.0077 301.117L10.0077 302.079C10.0077 303.019 9.77266 303.767 9.30251 304.322C8.83236 304.878 8.10577 305.156 7.12273 305.156L4.30184 305.156C3.31881 305.156 2.61358 304.878 2.18618 304.322C1.71603 303.767 1.48095 303.019 1.48095 302.079L1.48095 285.923C1.48095 280.452 2.61358 276.306 4.87884 273.485C7.10136 270.664 10.371 269.254 14.6878 269.254C17.5087 269.254 19.9236 270.002 21.9324 271.498C23.9412 272.951 25.4158 275.024 26.3561 277.716C26.6553 276.947 27.1681 276.242 27.8947 275.601C28.6213 274.917 29.6257 274.233 30.908 273.549L37.832 269.831L37.832 266.882ZM20.6502 287.012C20.6502 284.448 20.2014 282.61 19.3038 281.499C18.3635 280.345 16.889 279.768 14.8802 279.768C13.256 279.768 12.0379 280.324 11.2258 281.435C10.4138 282.503 10.0077 284.149 10.0077 286.371L10.0077 290.859L20.6502 290.859L20.6502 287.012Z" fill="white"/>
<path d="M21.8042 222.532C22.9154 219.07 24.0694 216.356 25.2662 214.39C26.4202 212.424 27.7665 211.013 29.3052 210.158C30.8438 209.261 32.7244 208.812 34.947 208.812C37.2122 208.812 39.2638 209.453 41.1016 210.735C42.9395 211.975 44.3927 213.727 45.4612 215.992C46.487 218.215 46.9998 220.737 46.9998 223.558C46.9998 226.678 46.5297 229.434 45.5894 231.828C44.6491 234.179 43.3241 235.995 41.6145 237.277C39.9049 238.56 37.9174 239.201 35.6522 239.201C34.4982 239.201 33.6006 238.944 32.9595 238.431C32.3184 237.876 31.9978 237.106 31.9978 236.123C31.9978 235.354 32.2757 234.713 32.8313 234.2C33.3442 233.687 33.9853 233.431 34.7546 233.431C35.3957 233.431 35.9727 233.602 36.4856 233.944C36.9558 234.285 37.2763 234.734 37.4473 235.29C39.3279 234.862 40.8024 233.623 41.871 231.571C42.9395 229.477 43.4737 226.806 43.4737 223.558C43.4737 220.309 42.7044 217.681 41.1657 215.672C39.5843 213.663 37.5755 212.659 35.1393 212.659C33.3014 212.659 31.8696 212.958 30.8438 213.556C29.7753 214.155 28.835 215.244 28.023 216.826C27.1681 218.407 26.2065 220.886 25.138 224.263C24.0267 227.767 22.8941 230.524 21.7401 232.533C20.5433 234.499 19.197 235.91 17.7011 236.764C16.1624 237.619 14.3032 238.047 12.1234 238.047C9.98636 238.047 8.06302 237.406 6.3534 236.123C4.60103 234.841 3.25469 233.067 2.31439 230.802C1.33136 228.494 0.839838 225.908 0.839838 223.045C0.839838 218.813 1.71602 215.565 3.46839 213.3C5.22076 210.992 7.7211 209.838 10.9694 209.838C12.1234 209.838 13.0209 210.116 13.6621 210.671C14.3032 211.184 14.6237 211.932 14.6237 212.915C14.6237 213.684 14.3673 214.326 13.8544 214.838C13.2988 215.351 12.6363 215.608 11.8669 215.608C11.2686 215.608 10.7343 215.458 10.2642 215.159C9.75128 214.817 9.38799 214.39 9.17428 213.877C5.96873 214.646 4.36595 217.809 4.36595 223.365C4.36595 226.613 5.09254 229.242 6.54573 231.251C7.99891 233.217 9.90088 234.2 12.2516 234.2C13.8758 234.2 15.2007 233.879 16.2265 233.238C17.2523 232.597 18.1926 231.465 19.0474 229.84C19.8595 228.174 20.7784 225.737 21.8042 222.532Z" fill="white"/>
<path d="M5.00706 164.498L42.8326 164.498L42.8326 162.51C42.8326 161.399 43.2387 160.843 44.0507 160.843L45.1406 160.843C45.9527 160.843 46.3587 161.399 46.3587 162.51L46.3587 170.268C46.3587 171.379 45.9527 171.935 45.1406 171.935L44.0507 171.935C43.2387 171.935 42.8326 171.379 42.8326 170.268L42.8326 168.28L24.8815 168.28L24.8815 192.45L42.8326 192.45L42.8326 190.463C42.8326 189.351 43.2387 188.796 44.0507 188.796L45.1406 188.796C45.9527 188.796 46.3587 189.351 46.3587 190.463L46.3587 198.22C46.3587 199.331 45.9527 199.887 45.1406 199.887L44.0507 199.887C43.2387 199.887 42.8326 199.331 42.8326 198.22L42.8326 196.233L5.00706 196.233L5.00706 198.22C5.00706 199.331 4.60102 199.887 3.78895 199.887L2.69906 199.887C1.88698 199.887 1.48095 199.331 1.48095 198.22L1.48095 190.463C1.48095 189.351 1.88698 188.796 2.69906 188.796L3.78895 188.796C4.60102 188.796 5.00706 189.351 5.00706 190.463L5.00706 192.45L21.3554 192.45L21.3554 168.28L5.00706 168.28L5.00706 170.268C5.00706 171.379 4.60102 171.935 3.78895 171.935L2.69906 171.935C1.88698 171.935 1.48095 171.379 1.48095 170.268L1.48095 162.51C1.48095 161.399 1.88698 160.843 2.69906 160.843L3.78895 160.843C4.60102 160.843 5.00706 161.399 5.00706 162.51L5.00706 164.498Z" fill="white"/>
<path d="M42.8326 112.108C42.8326 110.997 43.2387 110.441 44.0507 110.441L45.1406 110.441C45.9527 110.441 46.3587 110.997 46.3587 112.108L46.3587 119.994C46.3587 121.105 45.9527 121.661 45.1406 121.661L44.0507 121.661C43.2387 121.661 42.8326 121.105 42.8326 119.994L42.8326 118.007L31.5491 122.558L31.5491 141.535L42.8326 145.959L42.8326 143.972C42.8326 142.86 43.2387 142.305 44.0507 142.305L45.1406 142.305C45.9527 142.305 46.3587 142.86 46.3587 143.972L46.3587 151.857C46.3587 152.969 45.9527 153.524 45.1406 153.524L44.0507 153.524C43.2387 153.524 42.8326 152.969 42.8326 151.857L42.8326 149.87L2.63495 134.163C2.29302 134.034 2.0152 133.821 1.8015 133.521C1.5878 133.18 1.48094 132.838 1.48094 132.496L1.48094 131.983C1.48094 131.641 1.5878 131.32 1.8015 131.021C1.97246 130.722 2.22891 130.508 2.57083 130.38L42.8326 114.096L42.8326 112.108ZM28.023 123.969L7.63561 132.239L28.023 140.189L28.023 123.969Z" fill="white"/>
<path d="M42.8326 66.5494C42.8326 65.4381 43.2387 64.8825 44.0507 64.8825L45.1406 64.8825C45.9527 64.8825 46.3587 65.4381 46.3587 66.5494L46.3587 77.1918C46.3587 78.3031 45.9527 78.8587 45.1406 78.8587L44.0507 78.8587C43.2387 78.8587 42.8326 78.3031 42.8326 77.1918L42.8326 75.2685L24.0481 95.72L42.8326 95.72L42.8326 93.7325C42.8326 92.6212 43.2387 92.0656 44.0507 92.0656L45.1406 92.0656C45.9527 92.0656 46.3587 92.6212 46.3587 93.7325L46.3587 101.49C46.3587 102.601 45.9527 103.157 45.1406 103.157L44.0507 103.157C43.2387 103.157 42.8326 102.601 42.8326 101.49L42.8326 99.5025L5.00706 99.5025L5.00706 101.49C5.00706 102.601 4.60102 103.157 3.78894 103.157L2.69905 103.157C1.88698 103.157 1.48094 102.601 1.48094 101.49L1.48094 93.7325C1.48094 92.6212 1.88698 92.0656 2.69905 92.0656L3.78894 92.0656C4.60102 92.0656 5.00705 92.6212 5.00705 93.7325L5.00705 95.72L22.3171 95.72L5.00705 75.525L5.00705 77.1277C5.00705 78.239 4.60102 78.7946 3.78894 78.7946L2.69905 78.7946C1.88698 78.7946 1.48094 78.239 1.48094 77.1277L1.48094 67.7034C1.48094 66.5921 1.88698 66.0365 2.69905 66.0365L3.78894 66.0365C4.60102 66.0365 5.00705 66.5921 5.00705 67.7034L5.00705 70.2678L23.0864 91.4245L42.8326 69.9473L42.8326 66.5494Z" fill="white"/>
<path d="M46.3587 55.5979C46.3587 56.7092 45.9527 57.2648 45.1406 57.2648L44.0507 57.2648C43.2387 57.2648 42.8326 56.7092 42.8326 55.5979L42.8326 53.6105L5.00705 53.6105L5.00705 55.5979C5.00705 56.7092 4.60102 57.2648 3.78894 57.2648L2.69905 57.2648C1.88698 57.2648 1.48094 56.7092 1.48094 55.5979L1.48094 47.8405C1.48094 46.7292 1.88698 46.1736 2.69905 46.1736L3.78894 46.1736C4.60102 46.1736 5.00705 46.7292 5.00705 47.8405L5.00705 49.8279L42.8326 49.8279L42.8326 47.8405C42.8326 46.7292 43.2387 46.1736 44.0507 46.1736L45.1406 46.1736C45.9527 46.1736 46.3587 46.7292 46.3587 47.8405L46.3587 55.5979Z" fill="white"/>
<path d="M42.8326 2.66516C42.8326 1.55391 43.2386 0.99828 44.0507 0.99828L45.1406 0.99828C45.9527 0.998279 46.3587 1.55391 46.3587 2.66516L46.3587 6.76827C46.3587 7.3239 46.1023 7.79405 45.5894 8.17872L33.6647 15.872C31.4849 17.2825 30.0104 18.3296 29.2411 19.0135C28.4717 19.6974 27.9802 20.4881 27.7665 21.3856C27.5528 22.2404 27.4459 23.6936 27.4459 25.7452L27.4459 30.1688L42.8326 30.1688L42.8326 28.1814C42.8326 27.0701 43.2387 26.5145 44.0507 26.5145L45.1406 26.5145C45.9527 26.5145 46.3587 27.0701 46.3587 28.1814L46.3587 35.9388C46.3587 37.0501 45.9527 37.6057 45.1406 37.6057L44.0507 37.6057C43.2387 37.6057 42.8326 37.0501 42.8326 35.9388L42.8326 33.9514L5.00705 33.9514L5.00705 35.9388C5.00705 37.0501 4.60102 37.6057 3.78894 37.6057L2.69905 37.6057C1.88698 37.6057 1.48094 37.0501 1.48094 35.9388L1.48094 22.2832C1.48094 10.9569 5.45583 5.29372 13.4056 5.29372C16.9958 5.29372 19.9877 6.27676 22.3812 8.24284C24.7319 10.2089 26.2706 12.9657 26.9972 16.5132C27.7665 15.4446 29.0915 14.312 30.9721 13.1153L42.8326 5.48606L42.8326 2.66516ZM23.9198 21.7062C23.9198 17.4321 23.065 14.2693 21.3554 12.2177C19.603 10.1662 16.9745 9.14039 13.4697 9.14039C10.4351 9.14039 8.27672 10.1875 6.9945 12.2818C5.66953 14.3334 5.00705 17.6885 5.00705 22.3473L5.00705 30.1688L23.9198 30.1688L23.9198 21.7062Z" fill="white"/>
</svg>
