<svg width="20" height="21" viewBox="0 0 20 21" fill="none" xmlns="http://www.w3.org/2000/svg">
<path d="M19.4141 14.3984L15.0391 12.5234C14.9219 12.4844 14.8047 12.4453 14.6484 12.4453C14.375 12.4453 14.1016 12.6016 13.9453 12.7969L11.9922 15.1797C8.94531 13.7344 6.52344 11.3125 5.07812 8.26562L7.46094 6.3125C7.65625 6.15625 7.8125 5.88281 7.8125 5.57031C7.8125 5.45312 7.77344 5.33594 7.73438 5.21875L5.85938 0.84375C5.70312 0.492188 5.35156 0.257812 4.96094 0.257812C4.92188 0.257812 4.84375 0.296875 4.76562 0.296875L0.703125 1.23438C0.273438 1.35156 0 1.70312 0 2.13281C0 12.1719 8.08594 20.2578 18.125 20.2578C18.5547 20.2578 18.9062 19.9844 19.0234 19.5547L19.9609 15.4922C19.9609 15.4141 19.9609 15.3359 19.9609 15.2969C19.9609 14.9062 19.7266 14.5547 19.4141 14.3984Z" fill="white"/>
</svg>
