<svg width="138" height="18" viewBox="0 0 138 18" fill="none" xmlns="http://www.w3.org/2000/svg">
<path d="M0.189331 16.7985V0.0268555H3.31233L11.1277 10.166L18.7704 0.0268555H21.862V16.7985H18.2839V6.43723C18.2839 6.23625 18.2969 5.98237 18.3231 5.6756C18.3493 5.36883 18.3832 5.02505 18.4251 4.64423C18.2159 5.07794 18.0328 5.43495 17.8758 5.71527C17.7189 5.9956 17.5777 6.22567 17.4521 6.4055L11.2218 14.7834H10.4529L4.20685 6.37376C3.97668 6.05642 3.78052 5.75759 3.61835 5.47726C3.45619 5.19694 3.32279 4.92455 3.21817 4.6601C3.24955 5.00918 3.2731 5.32652 3.28878 5.61214C3.30448 5.89775 3.31233 6.17278 3.31233 6.43723V16.7985H0.189331ZM27.5325 10.1026H34.7986L31.2205 3.27964L27.5325 10.1026ZM20.1096 16.7985L29.4942 0.0268555H33.2136L42.7238 16.7985H38.3924L36.3993 13.1332H25.8847L23.9544 16.7985H20.1096ZM45.8206 16.7985L36.2319 0.0268555H40.6418L47.3586 12.1495L53.7615 0.0268555H57.6064L48.4885 16.7985H45.8206ZM55.4145 16.7985V0.0268555H72.3949V2.88297H59.2752V6.62764H66.9335V9.48371H59.2752V13.641H72.5518V16.7985H55.4145ZM85.4573 2.93056H76.7786V7.59555H85.4573C86.1264 7.59555 86.5844 7.4977 86.8304 7.302C87.0764 7.10631 87.199 6.75987 87.199 6.26269V4.24755C87.199 3.76095 87.0764 3.4198 86.8304 3.22411C86.5844 3.02841 86.1264 2.93056 85.4573 2.93056ZM72.9807 16.7985V0.0268555H87.1673C88.486 0.0268555 89.4408 0.283374 90.032 0.796418C90.6231 1.30946 90.9186 2.13719 90.9186 3.27964V7.21473C90.9186 8.34664 90.6231 9.17167 90.032 9.69003C89.4408 10.2084 88.486 10.4675 87.1673 10.4675H85.0018L92.6603 16.7985H87.1202L80.4351 10.4675H76.7786V16.7985H72.9807ZM92.0537 16.7985V0.0268555H95.9138V16.7985H92.0537ZM111.613 3.02577H101.208V13.641H111.613V10.0391L115.473 10.8483V12.8318C115.473 14.3656 115.188 15.4102 114.618 15.9655C114.048 16.5209 112.963 16.7985 111.361 16.7985H101.46C99.8478 16.7985 98.7597 16.5209 98.1946 15.9655C97.6303 15.4102 97.3477 14.3656 97.3477 12.8318V3.99368C97.3477 2.47041 97.6303 1.42846 98.1946 0.86782C98.7597 0.307174 99.8478 0.0268555 101.46 0.0268555H111.361C112.963 0.0268555 114.048 0.307174 114.618 0.86782C115.188 1.42846 115.473 2.47041 115.473 3.99368V5.5804L111.613 6.19922V3.02577ZM116.734 16.7985V0.0268555H120.626V7.02432L129.822 0.0268555H135.409L124.423 7.92876L136.759 16.7985H130.56L120.626 9.4203V16.7985H116.734Z" fill="#A2A6AA"/>
</svg>
