<svg width="148" height="19" viewBox="0 0 148 19" fill="none" xmlns="http://www.w3.org/2000/svg">
<path fill-rule="evenodd" clip-rule="evenodd" d="M14.9229 15.9479C14.1094 16.6474 13.1984 17.1843 12.1897 17.5585C11.181 17.9327 10.1357 18.1198 9.0538 18.1198C8.22407 18.1198 7.42485 18.012 6.65613 17.7965C5.88741 17.5809 5.1675 17.2758 4.4964 16.8813C3.82529 16.4868 3.21317 16.0129 2.66001 15.4598C2.10686 14.9066 1.63302 14.2945 1.23849 13.6234C0.843962 12.9523 0.538918 12.2324 0.32335 11.4637C0.107782 10.695 0 9.89574 0 9.066C0 8.23627 0.107782 7.43502 0.32335 6.66223C0.538918 5.88944 0.843962 5.1675 1.23849 4.4964C1.63302 3.82529 2.10686 3.21317 2.66001 2.66001C3.21317 2.10686 3.82529 1.63302 4.4964 1.23849C5.1675 0.843962 5.88741 0.538918 6.65613 0.32335C7.42485 0.107782 8.22407 0 9.0538 0C10.1357 0 11.181 0.18506 12.1897 0.555186C13.1984 0.925312 14.1094 1.46422 14.9229 2.17194L13.0682 5.22241C12.5557 4.66925 11.9497 4.24423 11.2501 3.94731C10.5506 3.6504 9.81846 3.50194 9.0538 3.50194C8.28101 3.50194 7.55704 3.64836 6.88187 3.94121C6.20669 4.23406 5.61694 4.63061 5.11259 5.13089C4.60824 5.63117 4.20965 6.22093 3.91681 6.90017C3.62396 7.57941 3.47754 8.30135 3.47754 9.066C3.47754 9.83066 3.62396 10.5485 3.91681 11.2196C4.20965 11.8907 4.60824 12.4785 5.11259 12.9828C5.61694 13.4872 6.20669 13.8857 6.88187 14.1786C7.55704 14.4714 8.28101 14.6179 9.0538 14.6179C9.81846 14.6179 10.5506 14.4694 11.2501 14.1725C11.9497 13.8756 12.5557 13.4506 13.0682 12.8974L14.9229 15.9479ZM29.1991 17.7415H16.9484V0.244038H20.4504V14.2396H29.1991V17.7415ZM43.0117 17.7415H31.0172V0.244038H43.0117V3.74598H34.5191V7.24792H40.2662V10.7499H34.5191V14.2396H43.0117V17.7415ZM55.7626 10.7499V7.24792C55.7626 6.76798 55.6711 6.31448 55.4881 5.88741C55.3051 5.46034 55.0549 5.08819 54.7377 4.77094C54.4204 4.45369 54.0483 4.20355 53.6212 4.02052C53.1941 3.83749 52.7406 3.74598 52.2607 3.74598C51.7808 3.74598 51.3273 3.83749 50.9002 4.02052C50.4731 4.20355 50.101 4.45369 49.7837 4.77094C49.4665 5.08819 49.2163 5.46034 49.0333 5.88741C48.8503 6.31448 48.7588 6.76798 48.7588 7.24792V10.7499H55.7626ZM59.2646 17.7415H55.7626V14.2396H48.7588V17.7415H45.269V7.24792C45.269 6.2799 45.452 5.37087 45.8181 4.5208C46.1842 3.67073 46.6824 2.92846 47.3128 2.29396C47.9433 1.65945 48.6835 1.15918 49.5336 0.793123C50.3836 0.427064 51.2927 0.244038 52.2607 0.244038C53.2287 0.244038 54.1377 0.427064 54.9878 0.793123C55.8379 1.15918 56.5802 1.65945 57.2147 2.29396C57.8492 2.92846 58.3494 3.67073 58.7155 4.5208C59.0816 5.37087 59.2646 6.2799 59.2646 7.24792V17.7415ZM65.8048 3.74598V10.7499H69.3067C69.7867 10.7499 70.2381 10.6584 70.6611 10.4753C71.0841 10.2923 71.4543 10.0422 71.7715 9.72491C72.0888 9.40766 72.3389 9.0355 72.5219 8.60843C72.705 8.18136 72.7965 7.72787 72.7965 7.24792C72.7965 6.76798 72.705 6.31448 72.5219 5.88741C72.3389 5.46034 72.0888 5.08819 71.7715 4.77094C71.4543 4.45369 71.0841 4.20355 70.6611 4.02052C70.2381 3.83749 69.7867 3.74598 69.3067 3.74598H65.8048ZM65.8048 17.7415H62.3028V0.244038H69.3067C69.9494 0.244038 70.5676 0.327417 71.1614 0.494177C71.7553 0.660936 72.3104 0.896837 72.827 1.20189C73.3435 1.50693 73.8153 1.87299 74.2424 2.30006C74.6695 2.72712 75.0355 3.20096 75.3406 3.72158C75.6456 4.24219 75.8815 4.79941 76.0483 5.39324C76.215 5.98706 76.2984 6.60529 76.2984 7.24792C76.2984 7.84989 76.2232 8.43557 76.0727 9.00499C75.9222 9.57442 75.7066 10.1154 75.426 10.6278C75.1453 11.1403 74.8017 11.6121 74.3949 12.0433C73.9882 12.4744 73.5327 12.8486 73.0283 13.1658L74.9684 17.7415H71.2468L69.7216 14.2152L65.8048 14.2396V17.7415ZM77.5674 5.49085C77.5674 4.76687 77.7057 4.08764 77.9823 3.45313C78.2589 2.81863 78.6351 2.26345 79.111 1.78758C79.5868 1.3117 80.142 0.93548 80.7765 0.658902C81.411 0.382324 82.0902 0.244038 82.8142 0.244038H90.8431V3.74598H82.8142C82.5702 3.74598 82.3424 3.79072 82.1309 3.8802C81.9194 3.96968 81.7344 4.09373 81.5757 4.25236C81.4171 4.41098 81.2931 4.59604 81.2036 4.80754C81.1141 5.01905 81.0694 5.24681 81.0694 5.49085C81.0694 5.73489 81.1141 5.96469 81.2036 6.18026C81.2931 6.39583 81.4171 6.58292 81.5757 6.74154C81.7344 6.90017 81.9194 7.02422 82.1309 7.1137C82.3424 7.20318 82.5702 7.24792 82.8142 7.24792H86.3162C87.0402 7.24792 87.7214 7.38418 88.36 7.65669C88.9986 7.9292 89.5558 8.30338 90.0316 8.77926C90.5075 9.25514 90.8817 9.81235 91.1542 10.4509C91.4267 11.0895 91.563 11.7708 91.563 12.4947C91.563 13.2187 91.4267 13.8979 91.1542 14.5325C90.8817 15.167 90.5075 15.7221 90.0316 16.198C89.5558 16.6739 88.9986 17.0501 88.36 17.3267C87.7214 17.6033 87.0402 17.7415 86.3162 17.7415H78.5436V14.2396H86.3162C86.5602 14.2396 86.788 14.1949 86.9995 14.1054C87.211 14.0159 87.396 13.8919 87.5547 13.7332C87.7133 13.5746 87.8373 13.3895 87.9268 13.178C88.0163 12.9665 88.061 12.7388 88.061 12.4947C88.061 12.2507 88.0163 12.0229 87.9268 11.8114C87.8373 11.5999 87.7133 11.4149 87.5547 11.2562C87.396 11.0976 87.211 10.9736 86.9995 10.8841C86.788 10.7946 86.5602 10.7499 86.3162 10.7499H82.8142C82.0902 10.7499 81.411 10.6116 80.7765 10.335C80.142 10.0584 79.5868 9.6822 79.111 9.20633C78.6351 8.73045 78.2589 8.17324 77.9823 7.53467C77.7057 6.8961 77.5674 6.21483 77.5674 5.49085ZM97.3589 17.7415H93.8569V0.244038H97.3589V17.7415ZM114.527 15.9723C113.713 16.6637 112.806 17.1945 111.806 17.5646C110.805 17.9347 109.764 18.1198 108.682 18.1198C107.853 18.1198 107.053 18.012 106.285 17.7965C105.516 17.5809 104.798 17.2758 104.131 16.8813C103.464 16.4868 102.854 16.015 102.301 15.4659C101.747 14.9168 101.276 14.3067 100.885 13.6356C100.495 12.9645 100.192 12.2426 99.9762 11.4698C99.7606 10.697 99.6528 9.89574 99.6528 9.066C99.6528 8.23627 99.7606 7.43909 99.9762 6.67443C100.192 5.90978 100.495 5.19191 100.885 4.5208C101.276 3.84969 101.747 3.2396 102.301 2.69052C102.854 2.14143 103.464 1.67166 104.131 1.2812C104.798 0.890736 105.516 0.587725 106.285 0.372158C107.053 0.15659 107.853 0.0488076 108.682 0.0488076C109.764 0.0488076 110.805 0.233868 111.806 0.603994C112.806 0.974119 113.713 1.5049 114.527 2.19634L112.697 5.24681C112.168 4.70993 111.558 4.28897 110.866 3.98392C110.175 3.67887 109.447 3.52635 108.682 3.52635C107.918 3.52635 107.2 3.67277 106.529 3.96561C105.857 4.25846 105.27 4.65502 104.765 5.1553C104.261 5.65558 103.862 6.24126 103.57 6.91237C103.277 7.58348 103.13 8.30135 103.13 9.066C103.13 9.83879 103.277 10.5628 103.57 11.2379C103.862 11.9131 104.261 12.5029 104.765 13.0072C105.27 13.5116 105.857 13.9102 106.529 14.203C107.2 14.4958 107.918 14.6423 108.682 14.6423C109.122 14.6423 109.549 14.5894 109.963 14.4836C110.378 14.3779 110.773 14.2315 111.147 14.0444V9.066H114.527V15.9723ZM120.725 17.7415H117.224V0.244038H120.725V7.24792H127.717V0.244038H131.219V17.7415H127.717V10.7499H120.725V17.7415ZM141.81 17.7415H138.321V3.74598H133.062V0.244038H147.057V3.74598H141.81V17.7415Z" fill="#A2A6AA"/>
</svg>
