<svg width="78" height="29" viewBox="0 0 78 29" fill="none" xmlns="http://www.w3.org/2000/svg">
<g clip-path="url(#clip0)">
<path opacity="0.2" d="M34.2656 19.4067C34.1505 19.2635 33.978 19.1871 33.7862 19.1871H26.9216L30.1622 4.03052C30.2005 3.85861 30.1526 3.67715 30.0471 3.54345C29.9321 3.40019 29.7499 3.31424 29.5677 3.31424H29.5581V3.30469H25.5794V3.31424C25.2534 3.31424 24.9466 3.56255 24.8795 3.88726L20.6418 23.7617C20.6035 23.9432 20.6418 24.1246 20.7569 24.2583C20.8623 24.392 21.0349 24.4684 21.2171 24.4684H32.8275C32.8371 24.4684 32.8371 24.4684 32.8466 24.4684C32.8562 24.4684 32.8562 24.4684 32.8658 24.4684C33.1918 24.4684 33.4986 24.2201 33.5657 23.8954L34.419 19.9224C34.4477 19.7887 34.4286 19.6455 34.371 19.5309C34.3231 19.4927 34.2943 19.4449 34.2656 19.4067ZM43.4983 3.5339C43.3928 3.40019 43.2203 3.32379 43.0381 3.32379C43.0285 3.32379 43.0189 3.32379 42.9997 3.32379V3.31424H39.021V3.32379C38.6854 3.33334 38.3882 3.5721 38.3115 3.89681L34.0738 23.7713C34.0355 23.9527 34.0738 24.1246 34.1889 24.2679C34.3039 24.4111 34.4765 24.4875 34.6778 24.4875C34.697 24.4875 34.7066 24.4875 34.7258 24.4875H38.6183C38.6375 24.4875 38.6566 24.4875 38.6662 24.4875C38.9922 24.4875 39.299 24.2392 39.3661 23.9145L43.6038 4.04007C43.6517 3.84906 43.6133 3.6676 43.4983 3.5339ZM61.5802 3.5339C61.4748 3.40019 61.3022 3.32379 61.1296 3.32379V3.31424H57.1316V3.32379C56.8248 3.33334 56.4989 3.5339 56.4126 3.92547L54.2075 14.2781L49.0015 3.6676C48.9152 3.4766 48.7522 3.35244 48.5509 3.33334H44.8981V3.34289C44.5817 3.32379 44.2269 3.52435 44.1311 3.94457L39.8934 23.7808C39.8455 24.0005 39.9126 24.1533 39.9701 24.2488C40.0564 24.3729 40.181 24.4493 40.3344 24.4875C40.3824 24.4971 40.4303 24.5066 40.4783 24.5066C40.5166 24.5066 40.555 24.5066 40.5933 24.4971H44.3708C44.4858 24.5162 44.6009 24.5066 44.7255 24.4684C44.9844 24.3825 45.1665 24.1819 45.224 23.9241L47.4387 13.5523L52.568 24.1724L52.5872 24.201C52.7022 24.392 52.894 24.4875 53.1145 24.4875C53.172 24.4875 53.2296 24.478 53.2871 24.4684H56.6906C56.7098 24.4684 56.729 24.4684 56.7386 24.4684C57.0645 24.4684 57.3713 24.2201 57.4384 23.8954L61.6761 4.02097C61.7336 3.84906 61.6953 3.6676 61.5802 3.5339ZM76.9585 3.89681C76.9585 3.73446 76.8914 3.58165 76.7763 3.46704L76.7476 3.44794C76.6517 3.37154 76.5462 3.33334 76.4408 3.31424H76.4312C76.3737 3.30469 76.3065 3.30469 76.249 3.31424H71.5799C71.369 3.28559 71.1389 3.36199 70.9663 3.52435L66.6616 8.01305L67.5053 4.03052C67.5436 3.84906 67.5053 3.6676 67.3902 3.5339C67.2848 3.40019 67.1122 3.32379 66.93 3.32379C66.8821 3.32379 66.8437 3.32379 66.8054 3.33334H62.8937V3.34289C62.5773 3.37154 62.2993 3.60075 62.2322 3.90636L57.9945 23.7808C57.9562 23.9623 57.9945 24.1342 58.1096 24.2774C58.2246 24.4207 58.3972 24.4971 58.5985 24.4971C58.6273 24.4971 58.656 24.4971 58.6848 24.4875H62.5581H62.5677C62.8937 24.4875 63.2005 24.2392 63.2676 23.9145L64.351 18.8814L67.0163 24.1628L67.0259 24.1819C67.1122 24.3347 67.256 24.4398 67.4286 24.478C67.4765 24.4875 67.5149 24.4971 67.5628 24.4971C67.5916 24.4971 67.6203 24.4971 67.6491 24.4875H72.3373C72.3661 24.4875 72.3949 24.4971 72.4236 24.4971C72.4524 24.4971 72.4812 24.4971 72.5099 24.4875H72.5195C72.6154 24.478 72.7112 24.4398 72.7975 24.3729C73.1235 24.1533 73.2386 23.7808 73.0852 23.4943L68.1093 13.5427L76.738 4.41254C76.8818 4.25973 76.9585 4.07827 76.9585 3.89681Z" fill="#A2A6AA"/>
<path d="M34.2656 19.4067C34.1505 19.2635 33.978 19.1871 33.7862 19.1871H26.9216L30.1622 4.03052C30.2005 3.85861 30.1526 3.67715 30.0471 3.54345C29.9321 3.40019 29.7499 3.31424 29.5677 3.31424H29.5581V3.30469H25.5794V3.31424C25.2534 3.31424 24.9466 3.56255 24.8795 3.88726L20.6418 23.7617C20.6035 23.9432 20.6418 24.1246 20.7569 24.2583C20.8623 24.392 21.0349 24.4684 21.2171 24.4684H32.8275C32.8371 24.4684 32.8371 24.4684 32.8466 24.4684C32.8562 24.4684 32.8562 24.4684 32.8658 24.4684C33.1918 24.4684 33.4986 24.2201 33.5657 23.8954L34.419 19.9224C34.4477 19.7887 34.4286 19.6455 34.371 19.5309C34.3231 19.4927 34.2943 19.4449 34.2656 19.4067ZM26.03 4.62265H28.6665L25.426 19.7792C25.3876 19.9511 25.4355 20.1325 25.541 20.2662C25.6561 20.4095 25.8382 20.4955 26.0204 20.4955H32.9233L32.3577 23.1505H22.0704L26.03 4.62265ZM43.4983 3.5339C43.3928 3.40019 43.2203 3.32379 43.0381 3.32379C43.0285 3.32379 43.0189 3.32379 42.9997 3.32379V3.31424H39.021V3.32379C38.6854 3.33334 38.3882 3.5721 38.3115 3.89681L34.0738 23.7713C34.0355 23.9527 34.0738 24.1246 34.1889 24.2679C34.3039 24.4111 34.4765 24.4875 34.6778 24.4875C34.697 24.4875 34.7066 24.4875 34.7258 24.4875H38.6183C38.6375 24.4875 38.6566 24.4875 38.6662 24.4875C38.9922 24.4875 39.299 24.2392 39.3661 23.9145L43.6038 4.04007C43.6517 3.84906 43.6133 3.6676 43.4983 3.5339ZM38.1869 23.16H35.5407L39.5003 4.62265H42.1561L38.1869 23.16ZM61.5802 3.5339C61.4748 3.40019 61.3022 3.32379 61.1296 3.32379V3.31424H57.1316V3.32379C56.8248 3.33334 56.4989 3.5339 56.4126 3.92547L54.2075 14.2781L49.0015 3.6676C48.9152 3.4766 48.7522 3.35244 48.5509 3.33334H44.8981V3.34289C44.5817 3.32379 44.2269 3.52435 44.1311 3.94457L39.8934 23.7808C39.8455 24.0005 39.9126 24.1533 39.9701 24.2488C40.0564 24.3729 40.181 24.4493 40.3344 24.4875C40.3824 24.4971 40.4303 24.5066 40.4783 24.5066C40.5166 24.5066 40.555 24.5066 40.5933 24.4971H44.3708C44.4858 24.5162 44.6009 24.5066 44.7255 24.4684C44.9844 24.3825 45.1665 24.1819 45.224 23.9241L47.4387 13.5523L52.568 24.1724L52.5872 24.201C52.7022 24.392 52.894 24.4875 53.1145 24.4875C53.172 24.4875 53.2296 24.478 53.2871 24.4684H56.6906C56.7098 24.4684 56.729 24.4684 56.7386 24.4684C57.0645 24.4684 57.3713 24.2201 57.4384 23.8954L61.6761 4.02097C61.7336 3.84906 61.6953 3.6676 61.5802 3.5339ZM56.2879 23.16H53.6802L47.8222 11.1265L47.8126 11.1074L47.8031 11.0883C47.6592 10.8782 47.4004 10.7731 47.1319 10.8209C46.8347 10.8782 46.595 11.1074 46.5375 11.3939L44.0256 23.16H41.3699L45.3295 4.62265H47.9756L53.824 16.6562C53.9103 16.8663 54.1116 17 54.3513 17C54.3705 17 54.3896 17 54.4088 17C54.7444 16.9714 55.0512 16.7135 55.1183 16.3983L57.6206 4.62265H60.2284L56.2879 23.16ZM76.9585 3.89681C76.9585 3.73446 76.8914 3.58165 76.7763 3.46704L76.7476 3.44794C76.6517 3.37154 76.5462 3.33334 76.4408 3.31424H76.4312C76.3737 3.30469 76.3065 3.30469 76.249 3.31424H71.5799C71.369 3.28559 71.1389 3.36199 70.9663 3.52435L66.6616 8.01305L67.5053 4.03052C67.5436 3.84906 67.5053 3.6676 67.3902 3.5339C67.2848 3.40019 67.1122 3.32379 66.93 3.32379C66.8821 3.32379 66.8437 3.32379 66.8054 3.33334H62.8937V3.34289C62.5773 3.37154 62.2993 3.60075 62.2322 3.90636L57.9945 23.7808C57.9562 23.9623 57.9945 24.1342 58.1096 24.2774C58.2246 24.4207 58.3972 24.4971 58.5985 24.4971C58.6273 24.4971 58.656 24.4971 58.6848 24.4875H62.5581H62.5677C62.8937 24.4875 63.2005 24.2392 63.2676 23.9145L64.351 18.8814L67.0163 24.1628L67.0259 24.1819C67.1122 24.3347 67.256 24.4398 67.4286 24.478C67.4765 24.4875 67.5149 24.4971 67.5628 24.4971C67.5916 24.4971 67.6203 24.4971 67.6491 24.4875H72.3373C72.3661 24.4875 72.3949 24.4971 72.4236 24.4971C72.4524 24.4971 72.4812 24.4971 72.5099 24.4875H72.5195C72.6154 24.478 72.7112 24.4398 72.7975 24.3729C73.1235 24.1533 73.2386 23.7808 73.0852 23.4943L68.1093 13.5427L76.738 4.41254C76.8818 4.25973 76.9585 4.07827 76.9585 3.89681ZM66.8341 13.0366C66.6232 13.2562 66.5657 13.5714 66.6903 13.8102L71.3498 23.1505H68.0326L64.6866 16.532C64.6099 16.3697 64.4756 16.2646 64.3126 16.2169C64.1401 16.1691 63.9387 16.2073 63.7757 16.3124C63.6032 16.4174 63.4689 16.6084 63.4306 16.7994L62.0788 23.1218H59.4518L63.3923 4.66085H66.0192L64.8879 9.97089C64.8112 10.3338 64.9838 10.5153 65.0988 10.5917C65.2043 10.6776 65.3385 10.7254 65.4823 10.7254C65.6645 10.7254 65.8466 10.649 66 10.5057L71.647 4.6131H74.7534L66.8341 13.0366Z" fill="#A2A6AA"/>
<g opacity="0.5">
<path opacity="0.5" d="M6.67265 18.7761L0.0668945 9.0538V0.72583H14.2755C17.8228 0.72583 20.5649 1.70952 22.3961 3.54321C23.9492 5.09038 24.7833 7.27742 24.7833 9.88469V9.96109C24.7833 14.4402 22.3577 17.2576 18.8104 18.566L25.6174 28.4889H18.1584L8.49426 14.1633L13.8632 14.211C16.8449 14.211 18.5611 12.6257 18.5611 10.2858V10.219C18.5611 7.60214 16.7299 6.25553 13.7482 6.25553H6.67265V18.7761Z" fill="#A2A6AA"/>
</g>
<path d="M6.67289 18.1077L0.546509 9.05388V0.057373H14.2757C17.8231 0.057373 20.5651 1.04107 22.3963 2.87475C23.9495 4.42192 24.7836 6.60897 24.7836 9.21623V9.29264C24.7836 13.7718 22.358 16.5892 18.8106 17.8976L25.6177 27.8205H18.4559L8.79171 13.4948L13.8635 13.5426C16.8452 13.5426 18.5613 11.9572 18.5613 9.61735V9.5505C18.5613 6.93368 16.7301 5.58707 13.7484 5.58707H6.67289V18.1077Z" fill="#A2A6AA"/>
</g>
<defs>
<clipPath id="clip0">
<rect width="77.0909" height="28.4564" fill="white"/>
</clipPath>
</defs>
</svg>
