<svg width="128" height="14" viewBox="0 0 128 14" fill="none" xmlns="http://www.w3.org/2000/svg">
<g clip-path="url(#clip0)">
<path d="M0.228027 0.113281V13.5649H3.81919V9.06212H7.06834L15.4762 13.5932H21.376L12.3696 8.75061H13.5666C18.5544 8.75061 20.2075 6.99482 20.2075 4.41779C20.2075 1.86907 18.0984 0.113281 13.4811 0.113281H0.228027ZM3.81919 2.77528H13.8517C15.5902 2.77528 16.9583 3.03015 16.9583 4.41779C16.9583 5.9187 15.5617 6.17357 13.8517 6.17357H6.1563L3.79069 7.27802L3.81919 2.77528Z" fill="#A2A6AA"/>
<path d="M73.5049 0.0566406L64.0425 10.1666H64.014L54.5516 0.0566406H49.5068L62.2469 13.5649H65.8096L78.5497 0.0566406H73.5049Z" fill="#A2A6AA"/>
<path d="M114.718 0.113281C110.1 0.113281 107.991 1.86907 107.991 4.4461C107.991 7.02314 109.644 8.77893 114.632 8.77893H115.829L106.823 13.5932H112.751L121.13 9.06212H124.38V13.5649H127.971V0.113281H114.718ZM124.38 7.30633L122.014 6.20189H114.319C112.609 6.20189 111.212 5.94702 111.212 4.4461C111.212 3.05847 112.58 2.8036 114.319 2.8036H124.351L124.38 7.30633Z" fill="#A2A6AA"/>
<path d="M82.5681 2.77528V0.1416L101.835 0.113281V13.5649L82.5681 13.5932V10.8745H98.3293L98.3008 8.12759H82.5681V5.55055H98.3578V2.77528H82.5681Z" fill="#A2A6AA"/>
<path d="M45.7732 2.77528V0.1416L26.5063 0.113281V13.5649L45.7732 13.5932V10.8745H30.012L30.0405 8.12759H45.7732V5.55055H29.9835V2.77528H45.7732Z" fill="#A2A6AA"/>
</g>
<defs>
<clipPath id="clip0">
<rect width="127.971" height="13.8764" fill="white"/>
</clipPath>
</defs>
</svg>
