<svg width="122" height="17" viewBox="0 0 122 17" fill="none" xmlns="http://www.w3.org/2000/svg">
<path d="M14.6519 13.074C14.9746 13.074 15.2312 13.1547 15.4219 13.316C15.6126 13.4773 15.7079 13.7267 15.7079 14.064V15.032C15.7079 15.3693 15.6126 15.6187 15.4219 15.78C15.2312 15.9267 14.9746 16 14.6519 16H10.3839C10.0612 16 9.80458 15.9267 9.61391 15.78C9.42325 15.6187 9.32791 15.3693 9.32791 15.032V14.064C9.32791 13.7267 9.42325 13.4773 9.61391 13.316C9.80458 13.1547 10.0612 13.074 10.3839 13.074H10.7139L10.0979 11.27H5.67591L5.05991 13.074H5.41191C5.71991 13.074 5.96925 13.1547 6.15991 13.316C6.35058 13.4773 6.44591 13.7267 6.44591 14.064V15.032C6.44591 15.3693 6.35058 15.6187 6.15991 15.78C5.96925 15.9267 5.71991 16 5.41191 16H1.71591C1.40791 16 1.15125 15.9267 0.945912 15.78C0.755245 15.6187 0.659912 15.3693 0.659912 15.032V14.064C0.659912 13.7267 0.755245 13.4773 0.945912 13.316C1.15125 13.1547 1.40791 13.074 1.71591 13.074H2.04591L6.24791 1.37001C6.32125 1.13534 6.45325 0.952005 6.64391 0.820004C6.84925 0.673338 7.07658 0.600005 7.32591 0.600005H9.04191C9.29125 0.600005 9.51125 0.673338 9.70191 0.820004C9.90725 0.952005 10.0466 1.13534 10.1199 1.37001L14.3219 13.074H14.6519ZM9.08591 8.34401L7.89791 4.82401L6.68791 8.34401H9.08591Z" fill="black"/>
<path d="M30.627 13.074C30.9497 13.074 31.2063 13.1547 31.397 13.316C31.5877 13.4773 31.683 13.7267 31.683 14.064V15.032C31.683 15.3693 31.5877 15.6187 31.397 15.78C31.2063 15.9267 30.9497 16 30.627 16H27.855C27.679 16 27.5103 15.956 27.349 15.868C27.2023 15.78 27.085 15.6553 26.997 15.494L24.973 11.776C24.709 11.292 24.4817 10.9327 24.291 10.698C24.1003 10.4633 23.895 10.302 23.675 10.214C23.455 10.126 23.1617 10.082 22.795 10.082H22.399V13.074H22.729C23.037 13.074 23.2863 13.1547 23.477 13.316C23.6677 13.4773 23.763 13.7267 23.763 14.064V15.032C23.763 15.3693 23.6677 15.6187 23.477 15.78C23.2863 15.9267 23.037 16 22.729 16H18.549C18.2263 16 17.9697 15.9267 17.779 15.78C17.5883 15.6187 17.493 15.3693 17.493 15.032V14.064C17.493 13.7267 17.5883 13.4773 17.779 13.316C17.9697 13.1547 18.2263 13.074 18.549 13.074H18.879V3.52601H18.549C18.2263 3.52601 17.9697 3.44534 17.779 3.28401C17.5883 3.12267 17.493 2.87334 17.493 2.536V1.56801C17.493 1.23067 17.5883 0.988672 17.779 0.842005C17.9697 0.680672 18.2263 0.600005 18.549 0.600005H24.093C25.9703 0.600005 27.393 0.988672 28.361 1.76601C29.329 2.52867 29.813 3.65067 29.813 5.13201C29.813 6.1 29.5563 6.92867 29.043 7.61801C28.5443 8.30734 27.833 8.81334 26.909 9.13601C27.173 9.23867 27.415 9.41467 27.635 9.66401C27.8697 9.91334 28.1043 10.258 28.339 10.698L29.615 13.074H30.627ZM23.719 7.17801C24.599 7.17801 25.2297 7.02401 25.611 6.71601C26.007 6.39334 26.205 5.88734 26.205 5.19801C26.205 4.64067 26.0143 4.22267 25.633 3.94401C25.2663 3.66534 24.7017 3.52601 23.939 3.52601H22.399V7.17801H23.719Z" fill="black"/>
<path d="M45.8458 7.57401C47.0338 7.95534 47.9652 8.35134 48.6399 8.762C49.3145 9.158 49.7985 9.62001 50.0919 10.148C50.3999 10.676 50.5539 11.3213 50.5539 12.084C50.5539 12.8613 50.3338 13.5653 49.8938 14.196C49.4685 14.8267 48.8672 15.3253 48.0899 15.692C47.3272 16.044 46.4619 16.22 45.4939 16.22C44.4232 16.22 43.4772 16.0587 42.6558 15.736C41.8492 15.4133 41.2259 14.9587 40.7859 14.372C40.3459 13.7853 40.1259 13.1033 40.1259 12.326C40.1259 11.93 40.2139 11.622 40.3899 11.402C40.5805 11.182 40.8445 11.072 41.1819 11.072C41.4459 11.072 41.6659 11.1673 41.8419 11.358C42.0179 11.534 42.1059 11.754 42.1059 12.018C42.1059 12.238 42.0472 12.436 41.9299 12.612C41.8125 12.7733 41.6585 12.8833 41.4678 12.942C41.6145 13.5873 42.0399 14.0933 42.7439 14.46C43.4625 14.8267 44.3792 15.01 45.4939 15.01C46.6085 15.01 47.5105 14.746 48.1998 14.218C48.8892 13.6753 49.2338 12.986 49.2338 12.15C49.2338 11.5193 49.1312 11.028 48.9258 10.676C48.7205 10.3093 48.3465 9.98667 47.8039 9.70801C47.2612 9.41467 46.4105 9.08467 45.2519 8.71801C44.0492 8.33667 43.1032 7.94801 42.4138 7.55201C41.7392 7.14134 41.2552 6.67934 40.9618 6.16601C40.6685 5.63801 40.5219 5.00001 40.5219 4.252C40.5219 3.51867 40.7419 2.85867 41.1819 2.27201C41.6219 1.67067 42.2305 1.20867 43.0079 0.886005C43.7999 0.548672 44.6872 0.380005 45.6698 0.380005C47.1218 0.380005 48.2365 0.680672 49.0139 1.28201C49.8059 1.88334 50.2019 2.74134 50.2019 3.856C50.2019 4.252 50.1065 4.56 49.9159 4.78C49.7399 5 49.4832 5.11 49.1459 5.11C48.8819 5.11 48.6619 5.022 48.4859 4.846C48.3099 4.65534 48.2219 4.428 48.2219 4.164C48.2219 3.95867 48.2732 3.77534 48.3759 3.61401C48.4932 3.438 48.6398 3.31334 48.8158 3.24C48.5518 2.14 47.4665 1.59001 45.5598 1.59001C44.4452 1.59001 43.5432 1.83934 42.8539 2.338C42.1792 2.83667 41.8419 3.48934 41.8419 4.29601C41.8419 4.85334 41.9518 5.30801 42.1718 5.66001C42.3918 6.01201 42.7805 6.33467 43.3378 6.62801C43.9098 6.90667 44.7458 7.22201 45.8458 7.57401Z" fill="black"/>
<path d="M65.7605 1.81V14.79H66.4425C66.8238 14.79 67.0145 14.9293 67.0145 15.208V15.582C67.0145 15.8607 66.8238 16 66.4425 16H63.7805C63.3992 16 63.2085 15.8607 63.2085 15.582V15.208C63.2085 14.9293 63.3992 14.79 63.7805 14.79H64.4625V8.63001H56.1685V14.79H56.8505C57.2318 14.79 57.4225 14.9293 57.4225 15.208V15.582C57.4225 15.8607 57.2318 16 56.8505 16H54.1885C53.8072 16 53.6165 15.8607 53.6165 15.582V15.208C53.6165 14.9293 53.8072 14.79 54.1885 14.79H54.8705V1.81H54.1885C53.8072 1.81 53.6165 1.67067 53.6165 1.392V1.018C53.6165 0.739338 53.8072 0.600005 54.1885 0.600005H56.8505C57.2318 0.600005 57.4225 0.739338 57.4225 1.018V1.392C57.4225 1.67067 57.2318 1.81 56.8505 1.81H56.1685V7.42001H64.4625V1.81H63.7805C63.3992 1.81 63.2085 1.67067 63.2085 1.392V1.018C63.2085 0.739338 63.3992 0.600005 63.7805 0.600005H66.4425C66.8238 0.600005 67.0145 0.739338 67.0145 1.018V1.392C67.0145 1.67067 66.8238 1.81 66.4425 1.81H65.7605Z" fill="black"/>
<path d="M83.7381 14.79C84.1194 14.79 84.3101 14.9293 84.3101 15.208V15.582C84.3101 15.8607 84.1194 16 83.7381 16H81.0321C80.6508 16 80.4601 15.8607 80.4601 15.582V15.208C80.4601 14.9293 80.6508 14.79 81.0321 14.79H81.7141L80.1521 10.918H73.6401L72.1221 14.79H72.8041C73.1854 14.79 73.3761 14.9293 73.3761 15.208V15.582C73.3761 15.8607 73.1854 16 72.8041 16H70.0981C69.7168 16 69.5261 15.8607 69.5261 15.582V15.208C69.5261 14.9293 69.7168 14.79 70.0981 14.79H70.7801L76.1701 0.996005C76.2141 0.878671 76.2874 0.783338 76.3901 0.710005C76.5074 0.636671 76.6248 0.600005 76.7421 0.600005H76.9181C77.0354 0.600005 77.1454 0.636671 77.2481 0.710005C77.3508 0.768671 77.4241 0.856672 77.4681 0.974005L83.0561 14.79H83.7381ZM79.6681 9.70801L76.8301 2.71201L74.1021 9.70801H79.6681Z" fill="black"/>
<path d="M99.3718 14.79C99.7532 14.79 99.9438 14.9293 99.9438 15.208V15.582C99.9438 15.8607 99.7532 16 99.3718 16H95.7198C95.3385 16 95.1479 15.8607 95.1479 15.582V15.208C95.1479 14.9293 95.3385 14.79 95.7198 14.79H96.3799L89.3618 8.34401V14.79H90.0439C90.4252 14.79 90.6159 14.9293 90.6159 15.208V15.582C90.6159 15.8607 90.4252 16 90.0439 16H87.3819C87.0005 16 86.8099 15.8607 86.8099 15.582V15.208C86.8099 14.9293 87.0005 14.79 87.3819 14.79H88.0639V1.81H87.3819C87.0005 1.81 86.8099 1.67067 86.8099 1.392V1.018C86.8099 0.739338 87.0005 0.600005 87.3819 0.600005H90.0439C90.4252 0.600005 90.6159 0.739338 90.6159 1.018V1.392C90.6159 1.67067 90.4252 1.81 90.0439 1.81H89.3618V7.75001L96.2918 1.81H95.7419C95.3605 1.81 95.1699 1.67067 95.1699 1.392V1.018C95.1699 0.739338 95.3605 0.600005 95.7419 0.600005H98.9759C99.3572 0.600005 99.5479 0.739338 99.5479 1.018V1.392C99.5479 1.67067 99.3572 1.81 98.9759 1.81H98.0958L90.8358 8.01401L98.2058 14.79H99.3718Z" fill="black"/>
<path d="M103.13 16C102.749 16 102.558 15.8607 102.558 15.582V15.208C102.558 14.9293 102.749 14.79 103.13 14.79H103.812V1.81H103.13C102.749 1.81 102.558 1.67067 102.558 1.392V1.018C102.558 0.739338 102.749 0.600005 103.13 0.600005H105.792C106.173 0.600005 106.364 0.739338 106.364 1.018V1.392C106.364 1.67067 106.173 1.81 105.792 1.81H105.11V14.79H105.792C106.173 14.79 106.364 14.9293 106.364 15.208V15.582C106.364 15.8607 106.173 16 105.792 16H103.13Z" fill="black"/>
<path d="M121.294 14.79C121.675 14.79 121.866 14.9293 121.866 15.208V15.582C121.866 15.8607 121.675 16 121.294 16H119.886C119.695 16 119.534 15.912 119.402 15.736L116.762 11.644C116.278 10.896 115.919 10.39 115.684 10.126C115.449 9.86201 115.178 9.69334 114.87 9.62001C114.577 9.54667 114.078 9.51 113.374 9.51H111.856V14.79H112.538C112.919 14.79 113.11 14.9293 113.11 15.208V15.582C113.11 15.8607 112.919 16 112.538 16H109.876C109.495 16 109.304 15.8607 109.304 15.582V15.208C109.304 14.9293 109.495 14.79 109.876 14.79H110.558V1.81H109.876C109.495 1.81 109.304 1.67067 109.304 1.392V1.018C109.304 0.739338 109.495 0.600005 109.876 0.600005H114.562C118.449 0.600005 120.392 1.964 120.392 4.69201C120.392 5.92401 120.055 6.95067 119.38 7.77201C118.705 8.57867 117.759 9.10667 116.542 9.35601C116.909 9.62001 117.297 10.0747 117.708 10.72L120.326 14.79H121.294ZM114.76 8.3C116.227 8.3 117.312 8.00667 118.016 7.42001C118.72 6.81867 119.072 5.91667 119.072 4.71401C119.072 3.67267 118.713 2.932 117.994 2.49201C117.29 2.03734 116.139 1.81 114.54 1.81H111.856V8.3H114.76Z" fill="black"/>
</svg>
