<svg width="117" height="51" viewBox="0 0 117 51" fill="none" xmlns="http://www.w3.org/2000/svg">
<path d="M87.7644 35.3988C94.3035 40.1576 100.602 45.1485 106.39 50.6386L111.176 49.52C112.159 45.7078 113.276 41.9389 114.191 38.1525C115.029 34.7364 116.444 30.95 116.204 27.465L112.438 26.5613C110.454 29.5732 109.78 33.4455 108.769 36.8188L108.249 38.7118C107.854 36.4831 107.334 34.22 106.698 32.1806C105.051 26.9916 102.576 21.8973 99.2344 17.4141C92.2138 8.01712 80.9556 2.03663 68.4839 0.461977C55.3466 -1.19022 42.0949 1.73548 30.5862 7.41484C24.6075 10.3577 19.0702 14.015 13.9273 18.025C11.2695 20.0817 8.75477 22.3018 6.30905 24.5822C4.09262 26.6475 1.40776 28.7299 0 31.3373L3.01523 34.022C5.45108 32.7399 7.28044 30.6918 9.32182 28.9277C11.5481 27.0174 13.8311 25.1588 16.1807 23.3603C20.9661 19.6772 26.003 16.2781 31.5034 13.4643C41.8755 8.16362 53.7293 5.2377 65.7199 6.38234C77.3344 7.4838 87.0807 12.9651 93.7162 21.4585C96.8846 25.5288 99.1574 30.0034 100.862 34.6932L102.451 40.0714C99.1382 37.077 96.0757 33.9015 92.3679 31.2683C89.1224 28.9881 84.4708 33.0153 87.7644 35.3988Z" fill="#F4CDB8"/>
<path fill-rule="evenodd" clip-rule="evenodd" d="M88.3507 34.5887L88.3528 34.5903C94.7657 39.2572 100.964 44.1585 106.686 49.5425L110.36 48.6838C110.73 47.27 111.11 45.8801 111.488 44.4992C112.089 42.3029 112.685 40.1293 113.219 37.9176L113.22 37.9143C113.418 37.106 113.647 36.279 113.875 35.458L113.929 35.2642C114.176 34.3736 114.419 33.488 114.629 32.6041C114.986 31.0967 115.232 29.6408 115.231 28.2599L112.908 27.7025C112.184 28.9523 111.652 30.3586 111.194 31.8483C110.929 32.7115 110.692 33.5893 110.456 34.4747L110.409 34.648C110.191 35.4672 109.97 36.2938 109.73 37.0947L109.213 38.9767L107.264 38.8863C106.875 36.6898 106.364 34.4704 105.744 32.4811C104.127 27.3857 101.7 22.3946 98.4326 18.0118C91.5977 8.86386 80.6017 2.99988 68.3587 1.4541C55.4479 -0.169492 42.3929 2.70354 31.0288 8.3116L31.0278 8.31204C25.1235 11.2183 19.644 14.8357 14.5422 18.8136L14.5393 18.8159C11.9146 20.8469 9.42435 23.0447 6.99102 25.3136C6.5285 25.7446 6.06868 26.1565 5.61249 26.5652C4.91738 27.1879 4.2301 27.8036 3.55215 28.4697C2.66841 29.3381 1.88464 30.2157 1.28153 31.1394L3.14598 32.7995C4.02854 32.2651 4.84492 31.6168 5.65673 30.9041C6.12282 30.4949 6.57927 30.072 7.04702 29.6385L7.13813 29.5541C7.634 29.0947 8.14286 28.6249 8.66797 28.1711L8.67061 28.1688C10.9098 26.2474 13.2069 24.3773 15.5719 22.5669C20.3893 18.8593 25.4781 15.4233 31.0479 12.574C41.557 7.20332 53.6013 4.22093 65.815 5.38686C77.6993 6.51409 87.6976 12.1304 94.5042 20.8428L94.5053 20.8442C97.7506 25.0134 100.069 29.5853 101.802 34.3516L101.812 34.3805L104.417 43.1965L101.78 40.8133C100.87 39.9901 99.9889 39.1646 99.1166 38.347C96.7528 36.1316 94.4519 33.9751 91.7908 32.085C90.6222 31.2657 89.1592 31.5557 88.2752 32.3348C87.8407 32.7178 87.6487 33.133 87.6372 33.4621C87.6274 33.743 87.7414 34.1478 88.3507 34.5887ZM92.3679 31.2683C95.0895 33.2012 97.4635 35.4262 99.844 37.6574C100.235 38.0241 100.627 38.3909 101.02 38.7567C101.493 39.1973 101.97 39.6363 102.451 40.0714L100.862 34.6932C99.1574 30.0034 96.8846 25.5288 93.7162 21.4585C87.0807 12.9651 77.3344 7.4838 65.7199 6.38234C53.7293 5.2377 41.8755 8.16362 31.5034 13.4643C26.003 16.2781 20.9661 19.6772 16.1807 23.3603C13.8311 25.1588 11.5481 27.0174 9.32182 28.9277C8.77949 29.3964 8.25213 29.8851 7.72438 30.3742C6.26564 31.726 4.80396 33.0805 3.01523 34.022L0 31.3373C1.1342 29.2366 3.09738 27.4766 4.97668 25.7919C5.42995 25.3855 5.87835 24.9836 6.30905 24.5822C8.75477 22.3018 11.2695 20.0817 13.9273 18.025C19.0702 14.015 24.6075 10.3577 30.5862 7.41484C42.0949 1.73548 55.3466 -1.19022 68.4839 0.461977C80.9556 2.03663 92.2138 8.01712 99.2344 17.4141C102.576 21.8973 105.051 26.9916 106.698 32.1806C107.124 33.5482 107.499 35.0164 107.818 36.5074C107.82 36.5168 107.822 36.5262 107.824 36.5356C107.826 36.544 107.828 36.5524 107.83 36.5608C107.982 37.2757 108.122 37.9955 108.249 38.7118L108.769 36.8188C108.796 36.7289 108.822 36.6386 108.849 36.5479C109.055 35.843 109.249 35.1181 109.445 34.3854C110.167 31.6798 110.918 28.8682 112.438 26.5613L116.204 27.465C116.389 30.1414 115.596 32.9956 114.84 35.7232C114.611 36.5473 114.385 37.3599 114.191 38.1525C113.656 40.3678 113.051 42.5772 112.445 44.7928C112.015 46.364 111.584 47.9383 111.176 49.52L106.39 50.6386C100.602 45.1485 94.3035 40.1576 87.7644 35.3988C84.4708 33.0153 89.1224 28.9881 92.3679 31.2683Z" fill="#F4CDB8"/>
</svg>
